<mxfile host="app.diagrams.net" modified="2024-04-14T17:00:31.983Z" agent="Mozilla/5.0 (Windows NT 10.0; Win64; x64) AppleWebKit/537.36 (KHTML, like Gecko) Chrome/123.0.0.0 Safari/537.36" etag="2LSr7H5yob88ilQq0Xlg" version="24.2.5" type="device">
  <diagram name="Page-1" id="8DiWaBs77UvAqidTthWE">
    <mxGraphModel dx="2607" dy="2456" grid="1" gridSize="10" guides="1" tooltips="1" connect="1" arrows="1" fold="1" page="1" pageScale="1" pageWidth="850" pageHeight="1100" math="0" shadow="0">
      <root>
        <mxCell id="0" />
        <mxCell id="1" parent="0" />
        <mxCell id="GtC54rQLJjkIqxEswgco-60" value="Every second" style="shape=umlLifeline;perimeter=lifelinePerimeter;whiteSpace=wrap;container=1;dropTarget=0;collapsible=0;recursiveResize=0;outlineConnect=0;portConstraint=eastwest;newEdgeStyle={&quot;edgeStyle&quot;:&quot;elbowEdgeStyle&quot;,&quot;elbow&quot;:&quot;vertical&quot;,&quot;curved&quot;:0,&quot;rounded&quot;:0};participant=umlActor;verticalAlign=bottom;labelPosition=center;verticalLabelPosition=top;align=center;size=65;" vertex="1" parent="1">
          <mxGeometry x="20" y="20" width="35" height="1728" as="geometry" />
        </mxCell>
        <mxCell id="GtC54rQLJjkIqxEswgco-61" value="ReportHandler" style="shape=umlLifeline;perimeter=lifelinePerimeter;whiteSpace=wrap;container=1;dropTarget=0;collapsible=0;recursiveResize=0;outlineConnect=0;portConstraint=eastwest;newEdgeStyle={&quot;edgeStyle&quot;:&quot;elbowEdgeStyle&quot;,&quot;elbow&quot;:&quot;vertical&quot;,&quot;curved&quot;:0,&quot;rounded&quot;:0};size=65;" vertex="1" parent="1">
          <mxGeometry x="272" y="20" width="150" height="1728" as="geometry" />
        </mxCell>
        <mxCell id="GtC54rQLJjkIqxEswgco-118" value="" style="points=[];perimeter=orthogonalPerimeter;outlineConnect=0;targetShapes=umlLifeline;portConstraint=eastwest;newEdgeStyle={&quot;edgeStyle&quot;:&quot;elbowEdgeStyle&quot;,&quot;elbow&quot;:&quot;vertical&quot;,&quot;curved&quot;:0,&quot;rounded&quot;:0}" vertex="1" parent="GtC54rQLJjkIqxEswgco-61">
          <mxGeometry x="70" y="100" width="10" height="1550" as="geometry" />
        </mxCell>
        <mxCell id="GtC54rQLJjkIqxEswgco-62" value="BlueprintPersistenceService" style="shape=umlLifeline;perimeter=lifelinePerimeter;whiteSpace=wrap;container=1;dropTarget=0;collapsible=0;recursiveResize=0;outlineConnect=0;portConstraint=eastwest;newEdgeStyle={&quot;edgeStyle&quot;:&quot;elbowEdgeStyle&quot;,&quot;elbow&quot;:&quot;vertical&quot;,&quot;curved&quot;:0,&quot;rounded&quot;:0};size=65;" vertex="1" parent="1">
          <mxGeometry x="472" y="20" width="212" height="1728" as="geometry" />
        </mxCell>
        <mxCell id="GtC54rQLJjkIqxEswgco-63" value="" style="points=[];perimeter=orthogonalPerimeter;outlineConnect=0;targetShapes=umlLifeline;portConstraint=eastwest;newEdgeStyle={&quot;edgeStyle&quot;:&quot;elbowEdgeStyle&quot;,&quot;elbow&quot;:&quot;vertical&quot;,&quot;curved&quot;:0,&quot;rounded&quot;:0}" vertex="1" parent="GtC54rQLJjkIqxEswgco-62">
          <mxGeometry x="101" y="159" width="10" height="156" as="geometry" />
        </mxCell>
        <mxCell id="GtC54rQLJjkIqxEswgco-64" value="ReportSchedulePersistenceService" style="shape=umlLifeline;perimeter=lifelinePerimeter;whiteSpace=wrap;container=1;dropTarget=0;collapsible=0;recursiveResize=0;outlineConnect=0;portConstraint=eastwest;newEdgeStyle={&quot;edgeStyle&quot;:&quot;elbowEdgeStyle&quot;,&quot;elbow&quot;:&quot;vertical&quot;,&quot;curved&quot;:0,&quot;rounded&quot;:0};size=65;" vertex="1" parent="1">
          <mxGeometry x="734" y="20" width="259" height="1728" as="geometry" />
        </mxCell>
        <mxCell id="GtC54rQLJjkIqxEswgco-65" value="" style="points=[];perimeter=orthogonalPerimeter;outlineConnect=0;targetShapes=umlLifeline;portConstraint=eastwest;newEdgeStyle={&quot;edgeStyle&quot;:&quot;elbowEdgeStyle&quot;,&quot;elbow&quot;:&quot;vertical&quot;,&quot;curved&quot;:0,&quot;rounded&quot;:0}" vertex="1" parent="GtC54rQLJjkIqxEswgco-64">
          <mxGeometry x="125" y="465" width="10" height="155" as="geometry" />
        </mxCell>
        <mxCell id="GtC54rQLJjkIqxEswgco-66" value="ReportService" style="shape=umlLifeline;perimeter=lifelinePerimeter;whiteSpace=wrap;container=1;dropTarget=0;collapsible=0;recursiveResize=0;outlineConnect=0;portConstraint=eastwest;newEdgeStyle={&quot;edgeStyle&quot;:&quot;elbowEdgeStyle&quot;,&quot;elbow&quot;:&quot;vertical&quot;,&quot;curved&quot;:0,&quot;rounded&quot;:0};size=65;" vertex="1" parent="1">
          <mxGeometry x="1043" y="20" width="150" height="1728" as="geometry" />
        </mxCell>
        <mxCell id="GtC54rQLJjkIqxEswgco-67" value="" style="points=[];perimeter=orthogonalPerimeter;outlineConnect=0;targetShapes=umlLifeline;portConstraint=eastwest;newEdgeStyle={&quot;edgeStyle&quot;:&quot;elbowEdgeStyle&quot;,&quot;elbow&quot;:&quot;vertical&quot;,&quot;curved&quot;:0,&quot;rounded&quot;:0}" vertex="1" parent="GtC54rQLJjkIqxEswgco-66">
          <mxGeometry x="70" y="719" width="10" height="261" as="geometry" />
        </mxCell>
        <mxCell id="GtC54rQLJjkIqxEswgco-68" value="" style="points=[];perimeter=orthogonalPerimeter;outlineConnect=0;targetShapes=umlLifeline;portConstraint=eastwest;newEdgeStyle={&quot;edgeStyle&quot;:&quot;elbowEdgeStyle&quot;,&quot;elbow&quot;:&quot;vertical&quot;,&quot;curved&quot;:0,&quot;rounded&quot;:0}" vertex="1" parent="GtC54rQLJjkIqxEswgco-66">
          <mxGeometry x="70" y="1031" width="10" height="259" as="geometry" />
        </mxCell>
        <mxCell id="GtC54rQLJjkIqxEswgco-69" value="" style="points=[];perimeter=orthogonalPerimeter;outlineConnect=0;targetShapes=umlLifeline;portConstraint=eastwest;newEdgeStyle={&quot;edgeStyle&quot;:&quot;elbowEdgeStyle&quot;,&quot;elbow&quot;:&quot;vertical&quot;,&quot;curved&quot;:0,&quot;rounded&quot;:0}" vertex="1" parent="GtC54rQLJjkIqxEswgco-66">
          <mxGeometry x="70" y="1447" width="10" height="153" as="geometry" />
        </mxCell>
        <mxCell id="GtC54rQLJjkIqxEswgco-70" value="ReportExcelProcessor" style="shape=umlLifeline;perimeter=lifelinePerimeter;whiteSpace=wrap;container=1;dropTarget=0;collapsible=0;recursiveResize=0;outlineConnect=0;portConstraint=eastwest;newEdgeStyle={&quot;edgeStyle&quot;:&quot;elbowEdgeStyle&quot;,&quot;elbow&quot;:&quot;vertical&quot;,&quot;curved&quot;:0,&quot;rounded&quot;:0};size=65;" vertex="1" parent="1">
          <mxGeometry x="1243" y="20" width="171" height="1728" as="geometry" />
        </mxCell>
        <mxCell id="GtC54rQLJjkIqxEswgco-71" value="" style="points=[];perimeter=orthogonalPerimeter;outlineConnect=0;targetShapes=umlLifeline;portConstraint=eastwest;newEdgeStyle={&quot;edgeStyle&quot;:&quot;elbowEdgeStyle&quot;,&quot;elbow&quot;:&quot;vertical&quot;,&quot;curved&quot;:0,&quot;rounded&quot;:0}" vertex="1" parent="GtC54rQLJjkIqxEswgco-70">
          <mxGeometry x="81" y="1343" width="10" height="57" as="geometry" />
        </mxCell>
        <mxCell id="GtC54rQLJjkIqxEswgco-72" value="PlcConnector" style="shape=umlLifeline;perimeter=lifelinePerimeter;whiteSpace=wrap;container=1;dropTarget=0;collapsible=0;recursiveResize=0;outlineConnect=0;portConstraint=eastwest;newEdgeStyle={&quot;edgeStyle&quot;:&quot;elbowEdgeStyle&quot;,&quot;elbow&quot;:&quot;vertical&quot;,&quot;curved&quot;:0,&quot;rounded&quot;:0};size=65;" vertex="1" parent="1">
          <mxGeometry x="1464" y="20" width="150" height="1728" as="geometry" />
        </mxCell>
        <mxCell id="GtC54rQLJjkIqxEswgco-119" value="" style="points=[];perimeter=orthogonalPerimeter;outlineConnect=0;targetShapes=umlLifeline;portConstraint=eastwest;newEdgeStyle={&quot;edgeStyle&quot;:&quot;elbowEdgeStyle&quot;,&quot;elbow&quot;:&quot;vertical&quot;,&quot;curved&quot;:0,&quot;rounded&quot;:0}" vertex="1" parent="GtC54rQLJjkIqxEswgco-72">
          <mxGeometry x="70" y="410" width="10" height="42" as="geometry" />
        </mxCell>
        <mxCell id="GtC54rQLJjkIqxEswgco-73" value="BlueprintRepository" style="shape=umlLifeline;perimeter=lifelinePerimeter;whiteSpace=wrap;container=1;dropTarget=0;collapsible=0;recursiveResize=0;outlineConnect=0;portConstraint=eastwest;newEdgeStyle={&quot;edgeStyle&quot;:&quot;elbowEdgeStyle&quot;,&quot;elbow&quot;:&quot;vertical&quot;,&quot;curved&quot;:0,&quot;rounded&quot;:0};size=65;" vertex="1" parent="1">
          <mxGeometry x="1664" y="20" width="159" height="1728" as="geometry" />
        </mxCell>
        <mxCell id="GtC54rQLJjkIqxEswgco-74" value="" style="points=[];perimeter=orthogonalPerimeter;outlineConnect=0;targetShapes=umlLifeline;portConstraint=eastwest;newEdgeStyle={&quot;edgeStyle&quot;:&quot;elbowEdgeStyle&quot;,&quot;elbow&quot;:&quot;vertical&quot;,&quot;curved&quot;:0,&quot;rounded&quot;:0}" vertex="1" parent="GtC54rQLJjkIqxEswgco-73">
          <mxGeometry x="75" y="211" width="10" height="59" as="geometry" />
        </mxCell>
        <mxCell id="GtC54rQLJjkIqxEswgco-75" value="ReportScheduleRepository" style="shape=umlLifeline;perimeter=lifelinePerimeter;whiteSpace=wrap;container=1;dropTarget=0;collapsible=0;recursiveResize=0;outlineConnect=0;portConstraint=eastwest;newEdgeStyle={&quot;edgeStyle&quot;:&quot;elbowEdgeStyle&quot;,&quot;elbow&quot;:&quot;vertical&quot;,&quot;curved&quot;:0,&quot;rounded&quot;:0};size=65;" vertex="1" parent="1">
          <mxGeometry x="1873" y="20" width="207" height="1728" as="geometry" />
        </mxCell>
        <mxCell id="GtC54rQLJjkIqxEswgco-76" value="" style="points=[];perimeter=orthogonalPerimeter;outlineConnect=0;targetShapes=umlLifeline;portConstraint=eastwest;newEdgeStyle={&quot;edgeStyle&quot;:&quot;elbowEdgeStyle&quot;,&quot;elbow&quot;:&quot;vertical&quot;,&quot;curved&quot;:0,&quot;rounded&quot;:0}" vertex="1" parent="GtC54rQLJjkIqxEswgco-75">
          <mxGeometry x="99" y="517" width="10" height="53" as="geometry" />
        </mxCell>
        <mxCell id="GtC54rQLJjkIqxEswgco-77" value="ReportPersistenceService" style="shape=umlLifeline;perimeter=lifelinePerimeter;whiteSpace=wrap;container=1;dropTarget=0;collapsible=0;recursiveResize=0;outlineConnect=0;portConstraint=eastwest;newEdgeStyle={&quot;edgeStyle&quot;:&quot;elbowEdgeStyle&quot;,&quot;elbow&quot;:&quot;vertical&quot;,&quot;curved&quot;:0,&quot;rounded&quot;:0};size=65;" vertex="1" parent="1">
          <mxGeometry x="2130" y="20" width="195" height="1728" as="geometry" />
        </mxCell>
        <mxCell id="GtC54rQLJjkIqxEswgco-78" value="" style="points=[];perimeter=orthogonalPerimeter;outlineConnect=0;targetShapes=umlLifeline;portConstraint=eastwest;newEdgeStyle={&quot;edgeStyle&quot;:&quot;elbowEdgeStyle&quot;,&quot;elbow&quot;:&quot;vertical&quot;,&quot;curved&quot;:0,&quot;rounded&quot;:0}" vertex="1" parent="GtC54rQLJjkIqxEswgco-77">
          <mxGeometry x="93" y="771" width="10" height="159" as="geometry" />
        </mxCell>
        <mxCell id="GtC54rQLJjkIqxEswgco-79" value="" style="points=[];perimeter=orthogonalPerimeter;outlineConnect=0;targetShapes=umlLifeline;portConstraint=eastwest;newEdgeStyle={&quot;edgeStyle&quot;:&quot;elbowEdgeStyle&quot;,&quot;elbow&quot;:&quot;vertical&quot;,&quot;curved&quot;:0,&quot;rounded&quot;:0}" vertex="1" parent="GtC54rQLJjkIqxEswgco-77">
          <mxGeometry x="93" y="1499" width="10" height="51" as="geometry" />
        </mxCell>
        <mxCell id="GtC54rQLJjkIqxEswgco-80" value="ReportRepository" style="shape=umlLifeline;perimeter=lifelinePerimeter;whiteSpace=wrap;container=1;dropTarget=0;collapsible=0;recursiveResize=0;outlineConnect=0;portConstraint=eastwest;newEdgeStyle={&quot;edgeStyle&quot;:&quot;elbowEdgeStyle&quot;,&quot;elbow&quot;:&quot;vertical&quot;,&quot;curved&quot;:0,&quot;rounded&quot;:0};size=65;" vertex="1" parent="1">
          <mxGeometry x="2375" y="20" width="150" height="1728" as="geometry" />
        </mxCell>
        <mxCell id="GtC54rQLJjkIqxEswgco-81" value="" style="points=[];perimeter=orthogonalPerimeter;outlineConnect=0;targetShapes=umlLifeline;portConstraint=eastwest;newEdgeStyle={&quot;edgeStyle&quot;:&quot;elbowEdgeStyle&quot;,&quot;elbow&quot;:&quot;vertical&quot;,&quot;curved&quot;:0,&quot;rounded&quot;:0}" vertex="1" parent="GtC54rQLJjkIqxEswgco-80">
          <mxGeometry x="70" y="823" width="10" height="57" as="geometry" />
        </mxCell>
        <mxCell id="GtC54rQLJjkIqxEswgco-82" value="ReportRowPersistenceService" style="shape=umlLifeline;perimeter=lifelinePerimeter;whiteSpace=wrap;container=1;dropTarget=0;collapsible=0;recursiveResize=0;outlineConnect=0;portConstraint=eastwest;newEdgeStyle={&quot;edgeStyle&quot;:&quot;elbowEdgeStyle&quot;,&quot;elbow&quot;:&quot;vertical&quot;,&quot;curved&quot;:0,&quot;rounded&quot;:0};size=65;" vertex="1" parent="1">
          <mxGeometry x="2575" y="20" width="225" height="1728" as="geometry" />
        </mxCell>
        <mxCell id="GtC54rQLJjkIqxEswgco-83" value="" style="points=[];perimeter=orthogonalPerimeter;outlineConnect=0;targetShapes=umlLifeline;portConstraint=eastwest;newEdgeStyle={&quot;edgeStyle&quot;:&quot;elbowEdgeStyle&quot;,&quot;elbow&quot;:&quot;vertical&quot;,&quot;curved&quot;:0,&quot;rounded&quot;:0}" vertex="1" parent="GtC54rQLJjkIqxEswgco-82">
          <mxGeometry x="108" y="1083" width="10" height="157" as="geometry" />
        </mxCell>
        <mxCell id="GtC54rQLJjkIqxEswgco-84" value="ReportRowRepository" style="shape=umlLifeline;perimeter=lifelinePerimeter;whiteSpace=wrap;container=1;dropTarget=0;collapsible=0;recursiveResize=0;outlineConnect=0;portConstraint=eastwest;newEdgeStyle={&quot;edgeStyle&quot;:&quot;elbowEdgeStyle&quot;,&quot;elbow&quot;:&quot;vertical&quot;,&quot;curved&quot;:0,&quot;rounded&quot;:0};size=65;" vertex="1" parent="1">
          <mxGeometry x="2850" y="20" width="173" height="1728" as="geometry" />
        </mxCell>
        <mxCell id="GtC54rQLJjkIqxEswgco-85" value="" style="points=[];perimeter=orthogonalPerimeter;outlineConnect=0;targetShapes=umlLifeline;portConstraint=eastwest;newEdgeStyle={&quot;edgeStyle&quot;:&quot;elbowEdgeStyle&quot;,&quot;elbow&quot;:&quot;vertical&quot;,&quot;curved&quot;:0,&quot;rounded&quot;:0}" vertex="1" parent="GtC54rQLJjkIqxEswgco-84">
          <mxGeometry x="82" y="1135" width="10" height="55" as="geometry" />
        </mxCell>
        <mxCell id="GtC54rQLJjkIqxEswgco-86" value="loop" style="shape=umlFrame;pointerEvents=0;dropTarget=0;strokeColor=#B3B3B3;height=20;width=40" vertex="1" parent="1">
          <mxGeometry x="270" y="661" width="2682" height="982" as="geometry" />
        </mxCell>
        <mxCell id="GtC54rQLJjkIqxEswgco-87" value="[for each reportTypes]" style="text;strokeColor=none;fillColor=none;align=center;verticalAlign=middle;whiteSpace=wrap;" vertex="1" parent="GtC54rQLJjkIqxEswgco-86">
          <mxGeometry x="40.94656488549618" width="2641.053435114504" height="20" as="geometry" />
        </mxCell>
        <mxCell id="GtC54rQLJjkIqxEswgco-88" value="opt" style="shape=umlFrame;pointerEvents=0;dropTarget=0;strokeColor=#B3B3B3;height=20;width=30" vertex="1" parent="1">
          <mxGeometry x="200" y="355" width="2762" height="1298" as="geometry" />
        </mxCell>
        <mxCell id="GtC54rQLJjkIqxEswgco-89" value="[checkerAddress is not empty]" style="text;strokeColor=none;fillColor=none;align=center;verticalAlign=middle;whiteSpace=wrap;" vertex="1" parent="GtC54rQLJjkIqxEswgco-88">
          <mxGeometry x="31.386363636363633" width="2730.613636363636" height="20" as="geometry" />
        </mxCell>
        <mxCell id="GtC54rQLJjkIqxEswgco-90" value="handle(context, response)" style="verticalAlign=bottom;endArrow=block;edgeStyle=elbowEdgeStyle;elbow=vertical;curved=0;rounded=0;" edge="1" parent="1" source="GtC54rQLJjkIqxEswgco-60" target="GtC54rQLJjkIqxEswgco-61">
          <mxGeometry relative="1" as="geometry">
            <Array as="points">
              <mxPoint x="231" y="127" />
            </Array>
          </mxGeometry>
        </mxCell>
        <mxCell id="GtC54rQLJjkIqxEswgco-91" value="getAll()" style="verticalAlign=bottom;endArrow=block;edgeStyle=elbowEdgeStyle;elbow=vertical;curved=0;rounded=0;" edge="1" parent="1" source="GtC54rQLJjkIqxEswgco-61" target="GtC54rQLJjkIqxEswgco-63">
          <mxGeometry relative="1" as="geometry">
            <Array as="points">
              <mxPoint x="475" y="179" />
            </Array>
          </mxGeometry>
        </mxCell>
        <mxCell id="GtC54rQLJjkIqxEswgco-92" value="findAll()" style="verticalAlign=bottom;endArrow=block;edgeStyle=elbowEdgeStyle;elbow=vertical;curved=0;rounded=0;" edge="1" parent="1" source="GtC54rQLJjkIqxEswgco-63" target="GtC54rQLJjkIqxEswgco-74">
          <mxGeometry relative="1" as="geometry">
            <Array as="points">
              <mxPoint x="1173" y="231" />
            </Array>
          </mxGeometry>
        </mxCell>
        <mxCell id="GtC54rQLJjkIqxEswgco-93" value="return data" style="verticalAlign=bottom;endArrow=block;edgeStyle=elbowEdgeStyle;elbow=vertical;curved=0;rounded=0;dashed=1;dashPattern=2 3;" edge="1" parent="1" source="GtC54rQLJjkIqxEswgco-73" target="GtC54rQLJjkIqxEswgco-63">
          <mxGeometry relative="1" as="geometry">
            <Array as="points">
              <mxPoint x="1171" y="283" />
            </Array>
          </mxGeometry>
        </mxCell>
        <mxCell id="GtC54rQLJjkIqxEswgco-94" value="return blueprints" style="verticalAlign=bottom;endArrow=block;edgeStyle=elbowEdgeStyle;elbow=vertical;curved=0;rounded=0;dashed=1;dashPattern=2 3;" edge="1" parent="1" source="GtC54rQLJjkIqxEswgco-63" target="GtC54rQLJjkIqxEswgco-61">
          <mxGeometry relative="1" as="geometry">
            <Array as="points">
              <mxPoint x="473" y="335" />
            </Array>
          </mxGeometry>
        </mxCell>
        <mxCell id="GtC54rQLJjkIqxEswgco-95" value="write(address, FALSE)" style="verticalAlign=bottom;endArrow=block;edgeStyle=elbowEdgeStyle;elbow=vertical;curved=0;rounded=0;" edge="1" parent="1" source="GtC54rQLJjkIqxEswgco-61" target="GtC54rQLJjkIqxEswgco-72">
          <mxGeometry relative="1" as="geometry">
            <Array as="points">
              <mxPoint x="956" y="433" />
            </Array>
          </mxGeometry>
        </mxCell>
        <mxCell id="GtC54rQLJjkIqxEswgco-96" value="getAll()" style="verticalAlign=bottom;endArrow=block;edgeStyle=elbowEdgeStyle;elbow=vertical;curved=0;rounded=0;" edge="1" parent="1" source="GtC54rQLJjkIqxEswgco-61" target="GtC54rQLJjkIqxEswgco-65">
          <mxGeometry relative="1" as="geometry">
            <Array as="points">
              <mxPoint x="618" y="485" />
            </Array>
          </mxGeometry>
        </mxCell>
        <mxCell id="GtC54rQLJjkIqxEswgco-97" value="findAll()" style="verticalAlign=bottom;endArrow=block;edgeStyle=elbowEdgeStyle;elbow=vertical;curved=0;rounded=0;" edge="1" parent="1" source="GtC54rQLJjkIqxEswgco-65" target="GtC54rQLJjkIqxEswgco-76">
          <mxGeometry relative="1" as="geometry">
            <Array as="points">
              <mxPoint x="1433" y="537" />
            </Array>
          </mxGeometry>
        </mxCell>
        <mxCell id="GtC54rQLJjkIqxEswgco-98" value="return data" style="verticalAlign=bottom;endArrow=block;edgeStyle=elbowEdgeStyle;elbow=vertical;curved=0;rounded=0;dashed=1;dashPattern=2 3;" edge="1" parent="1" source="GtC54rQLJjkIqxEswgco-75" target="GtC54rQLJjkIqxEswgco-65">
          <mxGeometry relative="1" as="geometry">
            <Array as="points">
              <mxPoint x="1430" y="589" />
            </Array>
          </mxGeometry>
        </mxCell>
        <mxCell id="GtC54rQLJjkIqxEswgco-99" value="return schedules" style="verticalAlign=bottom;endArrow=block;edgeStyle=elbowEdgeStyle;elbow=vertical;curved=0;rounded=0;dashed=1;dashPattern=2 3;" edge="1" parent="1" source="GtC54rQLJjkIqxEswgco-64" target="GtC54rQLJjkIqxEswgco-61">
          <mxGeometry relative="1" as="geometry">
            <Array as="points">
              <mxPoint x="615" y="641" />
            </Array>
          </mxGeometry>
        </mxCell>
        <mxCell id="GtC54rQLJjkIqxEswgco-100" value="createReportByType(type, recordingDate)" style="verticalAlign=bottom;endArrow=block;edgeStyle=elbowEdgeStyle;elbow=vertical;curved=0;rounded=0;" edge="1" parent="1" source="GtC54rQLJjkIqxEswgco-61" target="GtC54rQLJjkIqxEswgco-67">
          <mxGeometry relative="1" as="geometry">
            <Array as="points">
              <mxPoint x="745" y="739" />
            </Array>
          </mxGeometry>
        </mxCell>
        <mxCell id="GtC54rQLJjkIqxEswgco-101" value="create(report)" style="verticalAlign=bottom;endArrow=block;edgeStyle=elbowEdgeStyle;elbow=vertical;curved=0;rounded=0;" edge="1" parent="1" source="GtC54rQLJjkIqxEswgco-67" target="GtC54rQLJjkIqxEswgco-78">
          <mxGeometry relative="1" as="geometry">
            <Array as="points">
              <mxPoint x="1685" y="791" />
            </Array>
          </mxGeometry>
        </mxCell>
        <mxCell id="GtC54rQLJjkIqxEswgco-102" value="save(report)" style="verticalAlign=bottom;endArrow=block;edgeStyle=elbowEdgeStyle;elbow=vertical;curved=0;rounded=0;" edge="1" parent="1" source="GtC54rQLJjkIqxEswgco-78" target="GtC54rQLJjkIqxEswgco-81">
          <mxGeometry relative="1" as="geometry">
            <Array as="points">
              <mxPoint x="2351" y="843" />
            </Array>
          </mxGeometry>
        </mxCell>
        <mxCell id="GtC54rQLJjkIqxEswgco-103" value="return result" style="verticalAlign=bottom;endArrow=block;edgeStyle=elbowEdgeStyle;elbow=vertical;curved=0;rounded=0;dashed=1;dashPattern=2 3;" edge="1" parent="1" source="GtC54rQLJjkIqxEswgco-80" target="GtC54rQLJjkIqxEswgco-78">
          <mxGeometry relative="1" as="geometry">
            <Array as="points">
              <mxPoint x="2349" y="895" />
            </Array>
          </mxGeometry>
        </mxCell>
        <mxCell id="GtC54rQLJjkIqxEswgco-104" value="return result" style="verticalAlign=bottom;endArrow=block;edgeStyle=elbowEdgeStyle;elbow=vertical;curved=0;rounded=0;dashed=1;dashPattern=2 3;" edge="1" parent="1" source="GtC54rQLJjkIqxEswgco-77" target="GtC54rQLJjkIqxEswgco-67">
          <mxGeometry relative="1" as="geometry">
            <Array as="points">
              <mxPoint x="1683" y="947" />
            </Array>
          </mxGeometry>
        </mxCell>
        <mxCell id="GtC54rQLJjkIqxEswgco-105" value="return result" style="verticalAlign=bottom;endArrow=block;edgeStyle=elbowEdgeStyle;elbow=vertical;curved=0;rounded=0;dashed=1;dashPattern=2 3;" edge="1" parent="1" source="GtC54rQLJjkIqxEswgco-66" target="GtC54rQLJjkIqxEswgco-61">
          <mxGeometry relative="1" as="geometry">
            <Array as="points">
              <mxPoint x="743" y="999" />
            </Array>
          </mxGeometry>
        </mxCell>
        <mxCell id="GtC54rQLJjkIqxEswgco-106" value="createReportRows(response, reportId, schedulesOfType)" style="verticalAlign=bottom;endArrow=block;edgeStyle=elbowEdgeStyle;elbow=vertical;curved=0;rounded=0;" edge="1" parent="1" source="GtC54rQLJjkIqxEswgco-61" target="GtC54rQLJjkIqxEswgco-68">
          <mxGeometry relative="1" as="geometry">
            <Array as="points">
              <mxPoint x="745" y="1051" />
            </Array>
          </mxGeometry>
        </mxCell>
        <mxCell id="GtC54rQLJjkIqxEswgco-107" value="create(row, reportId)" style="verticalAlign=bottom;endArrow=block;edgeStyle=elbowEdgeStyle;elbow=vertical;curved=0;rounded=0;" edge="1" parent="1" source="GtC54rQLJjkIqxEswgco-68" target="GtC54rQLJjkIqxEswgco-83">
          <mxGeometry relative="1" as="geometry">
            <Array as="points">
              <mxPoint x="1915" y="1103" />
            </Array>
          </mxGeometry>
        </mxCell>
        <mxCell id="GtC54rQLJjkIqxEswgco-108" value="save(reportRow)" style="verticalAlign=bottom;endArrow=block;edgeStyle=elbowEdgeStyle;elbow=vertical;curved=0;rounded=0;" edge="1" parent="1" source="GtC54rQLJjkIqxEswgco-83" target="GtC54rQLJjkIqxEswgco-85">
          <mxGeometry relative="1" as="geometry">
            <Array as="points">
              <mxPoint x="2825" y="1155" />
            </Array>
          </mxGeometry>
        </mxCell>
        <mxCell id="GtC54rQLJjkIqxEswgco-109" value="return result" style="verticalAlign=bottom;endArrow=block;edgeStyle=elbowEdgeStyle;elbow=vertical;curved=0;rounded=0;dashed=1;dashPattern=2 3;" edge="1" parent="1" source="GtC54rQLJjkIqxEswgco-84" target="GtC54rQLJjkIqxEswgco-83">
          <mxGeometry relative="1" as="geometry">
            <Array as="points">
              <mxPoint x="2822" y="1207" />
            </Array>
          </mxGeometry>
        </mxCell>
        <mxCell id="GtC54rQLJjkIqxEswgco-110" value="return result" style="verticalAlign=bottom;endArrow=block;edgeStyle=elbowEdgeStyle;elbow=vertical;curved=0;rounded=0;dashed=1;dashPattern=2 3;" edge="1" parent="1" source="GtC54rQLJjkIqxEswgco-82" target="GtC54rQLJjkIqxEswgco-68">
          <mxGeometry relative="1" as="geometry">
            <Array as="points">
              <mxPoint x="1913" y="1259" />
            </Array>
          </mxGeometry>
        </mxCell>
        <mxCell id="GtC54rQLJjkIqxEswgco-111" value="return result" style="verticalAlign=bottom;endArrow=block;edgeStyle=elbowEdgeStyle;elbow=vertical;curved=0;rounded=0;dashed=1;dashPattern=2 3;" edge="1" parent="1" source="GtC54rQLJjkIqxEswgco-66" target="GtC54rQLJjkIqxEswgco-61">
          <mxGeometry relative="1" as="geometry">
            <Array as="points">
              <mxPoint x="743" y="1311" />
            </Array>
          </mxGeometry>
        </mxCell>
        <mxCell id="GtC54rQLJjkIqxEswgco-112" value="process(type, report, rows)" style="verticalAlign=bottom;endArrow=block;edgeStyle=elbowEdgeStyle;elbow=vertical;curved=0;rounded=0;" edge="1" parent="1" source="GtC54rQLJjkIqxEswgco-61" target="GtC54rQLJjkIqxEswgco-71">
          <mxGeometry relative="1" as="geometry">
            <Array as="points">
              <mxPoint x="850" y="1363" />
            </Array>
          </mxGeometry>
        </mxCell>
        <mxCell id="GtC54rQLJjkIqxEswgco-113" value="return result" style="verticalAlign=bottom;endArrow=block;edgeStyle=elbowEdgeStyle;elbow=vertical;curved=0;rounded=0;dashed=1;dashPattern=2 3;" edge="1" parent="1" source="GtC54rQLJjkIqxEswgco-70" target="GtC54rQLJjkIqxEswgco-61">
          <mxGeometry relative="1" as="geometry">
            <Array as="points">
              <mxPoint x="848" y="1415" />
            </Array>
          </mxGeometry>
        </mxCell>
        <mxCell id="GtC54rQLJjkIqxEswgco-114" value="updateSumJson(report, sums)" style="verticalAlign=bottom;endArrow=block;edgeStyle=elbowEdgeStyle;elbow=vertical;curved=0;rounded=0;" edge="1" parent="1" source="GtC54rQLJjkIqxEswgco-61" target="GtC54rQLJjkIqxEswgco-69">
          <mxGeometry relative="1" as="geometry">
            <Array as="points">
              <mxPoint x="745" y="1467" />
            </Array>
          </mxGeometry>
        </mxCell>
        <mxCell id="GtC54rQLJjkIqxEswgco-115" value="update(id, report)" style="verticalAlign=bottom;endArrow=block;edgeStyle=elbowEdgeStyle;elbow=vertical;curved=0;rounded=0;" edge="1" parent="1" source="GtC54rQLJjkIqxEswgco-69" target="GtC54rQLJjkIqxEswgco-79">
          <mxGeometry relative="1" as="geometry">
            <Array as="points">
              <mxPoint x="1685" y="1519" />
            </Array>
          </mxGeometry>
        </mxCell>
        <mxCell id="GtC54rQLJjkIqxEswgco-116" value="return result" style="verticalAlign=bottom;endArrow=block;edgeStyle=elbowEdgeStyle;elbow=vertical;curved=0;rounded=0;dashed=1;dashPattern=2 3;" edge="1" parent="1" source="GtC54rQLJjkIqxEswgco-77" target="GtC54rQLJjkIqxEswgco-69">
          <mxGeometry relative="1" as="geometry">
            <Array as="points">
              <mxPoint x="1683" y="1571" />
            </Array>
          </mxGeometry>
        </mxCell>
        <mxCell id="GtC54rQLJjkIqxEswgco-117" value="return result" style="verticalAlign=bottom;endArrow=block;edgeStyle=elbowEdgeStyle;elbow=vertical;curved=0;rounded=0;dashed=1;dashPattern=2 3;" edge="1" parent="1" source="GtC54rQLJjkIqxEswgco-66" target="GtC54rQLJjkIqxEswgco-61">
          <mxGeometry relative="1" as="geometry">
            <Array as="points">
              <mxPoint x="743" y="1623" />
            </Array>
          </mxGeometry>
        </mxCell>
      </root>
    </mxGraphModel>
  </diagram>
</mxfile>
